<svg width="17" height="32" viewBox="0 0 17 32" fill="none" xmlns="http://www.w3.org/2000/svg">
<path d="M15.6959 30.626V6.98167C15.6958 6.72828 15.616 6.48134 15.4679 6.27576C15.3198 6.07018 15.1108 5.91636 14.8704 5.83606L2.80293 1.81356C2.62148 1.75275 2.42816 1.73603 2.23896 1.76477C2.04976 1.79352 1.87013 1.86691 1.71493 1.97887C1.55973 2.09082 1.43342 2.23813 1.34646 2.4086C1.2595 2.57907 1.21438 2.7678 1.21485 2.95917V30.626" stroke="#A0A3BD" stroke-width="1.6" stroke-linecap="round" stroke-linejoin="round"/>
<path d="M10.8672 23.0059V24.2126" stroke="#A0A3BD" stroke-width="1.6" stroke-linecap="round" stroke-linejoin="round"/>
<path d="M10.8672 16.9722V18.1789" stroke="#A0A3BD" stroke-width="1.6" stroke-linecap="round" stroke-linejoin="round"/>
<path d="M10.8672 10.9385V12.1452" stroke="#A0A3BD" stroke-width="1.6" stroke-linecap="round" stroke-linejoin="round"/>
<path d="M6.04297 23.0059V24.2126" stroke="#A0A3BD" stroke-width="1.6" stroke-linecap="round" stroke-linejoin="round"/>
<path d="M6.04297 16.9722V18.1789" stroke="#A0A3BD" stroke-width="1.6" stroke-linecap="round" stroke-linejoin="round"/>
<path d="M6.04297 10.9385V12.1452" stroke="#A0A3BD" stroke-width="1.6" stroke-linecap="round" stroke-linejoin="round"/>
</svg>
