<svg width="249" height="34" viewBox="0 0 249 34" fill="none" xmlns="http://www.w3.org/2000/svg">
<path d="M6.66716 27.7978V25.2674C8.11312 27.6893 10.8604 28.2316 12.4149 28.2316C17.0419 28.2316 20.9822 24.2913 20.9822 18.5075C20.9822 12.9767 17.4396 8.74725 12.2341 8.74725C10.4628 8.74725 8.43846 9.36179 7.17325 11.2777V1.95123H0.883316V27.7978H6.66716ZM7.02865 18.4352C7.02865 15.8325 8.69151 14.2419 10.8966 14.2419C12.9571 14.2419 14.6561 15.8325 14.6561 18.4352C14.6561 21.0379 12.9571 22.7369 10.8966 22.7369C8.69151 22.7369 7.02865 21.0741 7.02865 18.4352Z" fill="#170F49"/>
<path d="M36.7994 8.89185C36.5102 8.7834 36.1125 8.74725 35.6426 8.74725C33.1844 8.74725 31.377 10.0848 30.401 12.3622V9.18104H24.1472V27.7978H30.4371V20.9656C30.4371 17.0615 32.2084 14.6395 35.3895 14.6395C36.0402 14.6395 36.5102 14.7118 36.7994 14.8564V8.89185Z" fill="#170F49"/>
<path d="M39.2211 27.7978H45.511V9.18104H39.2211V27.7978ZM38.968 3.97558C38.968 5.85533 40.414 7.22899 42.3299 7.22899C44.2458 7.22899 45.7279 5.85533 45.7279 3.97558C45.7279 2.09583 44.2458 0.722168 42.3299 0.722168C40.414 0.722168 38.968 2.09583 38.968 3.97558Z" fill="#170F49"/>
<path d="M54.1435 18.5798L47.7452 27.7978H54.7219L57.7584 22.8815L60.795 27.7978H67.7717L61.3733 18.5798L67.9163 9.18104H60.7588L57.7584 14.3504L54.7581 9.18104H47.6006L54.1435 18.5798Z" fill="#170F49"/>
<path d="M75.1631 12.8321H77.5489V20.2788C77.5489 24.6167 80.0071 27.0025 84.0557 27.0025C85.8994 27.0025 87.3092 26.6049 88.2852 26.1349V20.821C87.5261 21.3633 86.6223 21.5079 85.8632 21.5079C84.7064 21.5079 83.8389 20.821 83.8389 19.2305V12.8321H87.7791V7.95197H83.8389V2.92726H77.7297V7.95197H75.1631V12.8321Z" fill="#4A3AFF"/>
<path d="M107.622 18.7605C107.803 18.1822 107.984 17.0615 107.984 16.0855C107.984 10.9885 104.369 7.51819 99.0551 7.51819C93.5604 7.51819 89.3671 11.7838 89.3671 17.2784C89.3671 22.7731 93.452 27.0025 99.8142 27.0025C102.959 27.0025 105.417 26.2072 107.875 24.0021L104.694 20.0258C103.791 20.8933 102.308 21.7609 100.284 21.7609C98.1513 21.7609 96.127 20.8572 95.8378 18.7605H107.622ZM98.9105 12.5068C100.537 12.5068 101.802 13.5189 101.911 15.1095V15.1456H95.7293C95.8378 13.4466 97.2838 12.5068 98.9105 12.5068Z" fill="#4A3AFF"/>
<path d="M111.075 7.95197V26.5687H117.365V16.7723C117.365 14.4588 118.558 13.0128 120.33 13.0128C122.209 13.0128 123.222 14.1696 123.222 16.3385V26.5687H129.511V16.7723C129.511 14.4588 130.777 13.0128 132.476 13.0128C134.355 13.0128 135.368 14.1696 135.368 16.3385V26.5687H141.658V15.2179C141.658 10.4101 138.983 7.51819 134.464 7.51819C131.319 7.51819 129.62 8.928 128.355 10.5547C127.089 8.56651 125.065 7.51819 122.318 7.51819C120.113 7.51819 118.341 8.27731 117.076 10.1571V7.95197H111.075Z" fill="#4A3AFF"/>
<path d="M145.918 33.7985H152.208V24.7613C153.401 26.4964 155.498 27.0025 157.269 27.0025C162.475 27.0025 166.017 22.7731 166.017 17.2423C166.017 11.4584 161.968 7.51819 157.341 7.51819C155.823 7.51819 153.257 8.06042 151.702 10.4824V7.95197H145.918V33.7985ZM152.064 17.3146C152.064 14.6757 153.727 13.0128 155.932 13.0128C157.992 13.0128 159.691 14.7118 159.691 17.3146C159.691 19.9173 157.992 21.5079 155.932 21.5079C153.727 21.5079 152.064 19.9173 152.064 17.3146Z" fill="#4A3AFF"/>
<path d="M168.965 21.0018C168.965 24.9059 171.207 27.0025 175.111 27.0025C176.376 27.0025 177.352 26.7856 178.039 26.4603V21.3994C177.569 21.5802 177.135 21.6163 176.81 21.6163C175.364 21.6163 175.255 20.7126 175.255 19.845V0.722168H168.965V21.0018Z" fill="#4A3AFF"/>
<path d="M185.815 27.0025C188.273 27.0025 189.9 25.918 190.623 24.5082V26.5687H196.443V14.9287C196.443 10.3017 193.262 7.51819 187.876 7.51819C184.225 7.51819 181.224 9.10874 179.634 11.1331L182.923 15.0733C183.899 13.9527 185.418 12.8682 187.55 12.8682C189.105 12.8682 190.442 13.4105 190.442 14.9649V15.001L185.635 15.9409C181.73 16.7723 179.561 18.6521 179.561 21.3994C179.561 24.689 182.2 27.0025 185.815 27.0025ZM190.442 18.7967V19.0859C190.442 21.1464 189.286 22.4839 187.297 22.4839C186.177 22.4839 185.562 21.9055 185.562 21.0018C185.562 20.098 186.285 19.6281 187.406 19.3751L190.442 18.7967Z" fill="#4A3AFF"/>
<path d="M198.684 12.8321H201.07V20.2788C201.07 24.6167 203.528 27.0025 207.577 27.0025C209.42 27.0025 210.83 26.6049 211.806 26.1349V20.821C211.047 21.3633 210.143 21.5079 209.384 21.5079C208.227 21.5079 207.36 20.821 207.36 19.2305V12.8321H211.3V7.95197H207.36V2.92726H201.251V7.95197H198.684V12.8321Z" fill="#4A3AFF"/>
<path d="M231.143 18.7605C231.324 18.1822 231.505 17.0615 231.505 16.0855C231.505 10.9885 227.89 7.51819 222.576 7.51819C217.081 7.51819 212.888 11.7838 212.888 17.2784C212.888 22.7731 216.973 27.0025 223.335 27.0025C226.48 27.0025 228.938 26.2072 231.396 24.0021L228.215 20.0258C227.312 20.8933 225.829 21.7609 223.805 21.7609C221.672 21.7609 219.648 20.8572 219.359 18.7605H231.143ZM222.431 12.5068C224.058 12.5068 225.323 13.5189 225.432 15.1095V15.1456H219.25C219.359 13.4466 220.805 12.5068 222.431 12.5068Z" fill="#4A3AFF"/>
<path d="M241.031 27.0025C245.658 27.0025 248.767 24.4359 248.767 21.1102C248.767 17.423 245.911 16.447 242.983 15.2902C240.344 14.1696 239.223 13.9889 239.223 13.302C239.223 12.6152 240.055 12.2176 241.031 12.2176C242.766 12.2176 243.742 13.049 244.357 14.0973L248.261 11.2777C247.104 9.07259 244.393 7.51819 241.212 7.51819C237.018 7.51819 233.512 9.54253 233.512 13.2659C233.512 16.2663 235.572 17.7484 239.223 19.0497C241.79 19.9535 243.055 20.2788 243.055 21.2548C243.055 21.9417 242.368 22.3031 241.103 22.3031C239.223 22.3031 237.778 21.1464 236.91 19.6643L232.897 22.7369C234.452 25.4843 237.561 27.0025 241.031 27.0025Z" fill="#4A3AFF"/>
</svg>
