<svg width="17" height="29" viewBox="0 0 17 29" fill="none" xmlns="http://www.w3.org/2000/svg">
<path d="M13.5403 1.62598H3.36634C2.11769 1.62598 1.10547 2.6382 1.10547 3.88685V25.3651C1.10547 26.6138 2.11769 27.626 3.36634 27.626H13.5403C14.7889 27.626 15.8011 26.6138 15.8011 25.3651V3.88685C15.8011 2.6382 14.7889 1.62598 13.5403 1.62598Z" stroke="#A0A3BD" stroke-width="1.6" stroke-linecap="round" stroke-linejoin="round"/>
<path d="M12.1564 1.62598V3.10721C12.1564 3.50005 12.0003 3.87681 11.7225 4.15459C11.4448 4.43238 11.068 4.58843 10.6752 4.58843H6.23147C5.83863 4.58843 5.46187 4.43238 5.18409 4.15459C4.9063 3.87681 4.75024 3.50005 4.75024 3.10721V1.62598" stroke="#A0A3BD" stroke-width="1.6" stroke-linecap="round" stroke-linejoin="round"/>
</svg>
